<?xml version="1.0" encoding="UTF-8" standalone="no" ?>
<!DOCTYPE svg PUBLIC "-//W3C//DTD SVG 1.1//EN" "http://www.w3.org/Graphics/SVG/1.1/DTD/svg11.dtd">
<svg xmlns="http://www.w3.org/2000/svg" xmlns:xlink="http://www.w3.org/1999/xlink" version="1.1" width="640" height="480" viewBox="0 0 640 480" xml:space="preserve">
<desc>Created with Fabric.js 3.6.6</desc>
<defs>
</defs>
<g transform="matrix(3.38 0 0 3.38 317.12 157.99)"  >
<rect style="stroke: none; stroke-width: 2; stroke-dasharray: none; stroke-linecap: butt; stroke-dashoffset: 0; stroke-linejoin: miter; stroke-miterlimit: 4; fill: rgb(10,6,25); fill-opacity: 0; fill-rule: nonzero; opacity: 1;"  x="-30" y="-30.025" rx="0" ry="0" width="60" height="60.05" />
</g>
<g transform="matrix(3.38 0 0 3.38 237.79 261.79)"  >
<path style="stroke: none; stroke-width: 1; stroke-dasharray: none; stroke-linecap: butt; stroke-dashoffset: 0; stroke-linejoin: miter; stroke-miterlimit: 4; fill: rgb(229,76,65); fill-rule: nonzero; opacity: 1;"  transform=" translate(-6.55, -60.76)" d="M 13 60.69 c 0 1.18 -0.07 2.37 0 3.55 c 0.63 8.1 -2.69 7.89 -9.93 7.18 c -2.2 -0.21 -3 -2.2 -3 -4.24 C 0 62.93 0 58.67 0.08 54.43 c 0.09 -3.1 1.76 -4.77 5 -4.63 h 2.84 c 3.73 0.09 5 1.36 5.06 5.21 c 0.02 1.9 0.02 3.79 0.02 5.68 z" stroke-linecap="round" />
</g>
<g transform="matrix(3.38 0 0 3.38 303.96 205.71)"  >
<path style="stroke: none; stroke-width: 1; stroke-dasharray: none; stroke-linecap: butt; stroke-dashoffset: 0; stroke-linejoin: miter; stroke-miterlimit: 4; fill: rgb(249,190,21); fill-rule: nonzero; opacity: 1;"  transform=" translate(-26.12, -44.18)" d="M 19.6 44 v -2.48 c 0 -5.88 1 -6.86 6.81 -6.82 c 5.08 0 6.2 1.15 6.25 6.34 v 7.82 c -0.05 3.15 -1.55 4.87 -4.83 4.79 h -3.2 c -3.61 -0.14 -4.85 -1.37 -5 -5 c -0.08 -1.65 -0.03 -3.15 -0.03 -4.65 z" stroke-linecap="round" />
</g>
<g transform="matrix(3.38 0 0 3.38 370.25 267.21)"  >
<path style="stroke: none; stroke-width: 1; stroke-dasharray: none; stroke-linecap: butt; stroke-dashoffset: 0; stroke-linejoin: miter; stroke-miterlimit: 4; fill: rgb(63,169,91); fill-rule: nonzero; opacity: 1;"  transform=" translate(-45.74, -62.37)" d="M 52.14 62.47 v 2.84 c 0 5.46 -0.93 6.36 -6.42 6.36 s -6.35 -0.89 -6.37 -6.42 c 0 -2.6 -0.05 -5.21 0 -7.81 c 0.08 -2.83 1.5 -4.4 4.44 -4.37 h 3.2 c 3.88 0.08 5 1.2 5.11 5.13 c 0.07 1.42 0.04 2.8 0.04 4.27 z" stroke-linecap="round" />
</g>
<g transform="matrix(3.38 0 0 3.38 303.92 277.2)"  >
<path style="stroke: none; stroke-width: 1; stroke-dasharray: none; stroke-linecap: butt; stroke-dashoffset: 0; stroke-linejoin: miter; stroke-miterlimit: 4; fill: rgb(248,190,24); fill-rule: nonzero; opacity: 1;"  transform=" translate(-26.11, -65.33)" d="M 26.23 58.71 c 5.35 0 6.42 1.08 6.42 6.47 S 31.34 72 26 71.94 s -6.43 -1.27 -6.43 -6.56 c 0.02 -5.52 1.18 -6.68 6.66 -6.67 z" stroke-linecap="round" />
</g>
<g transform="matrix(3.38 0 0 3.38 370.25 164.2)"  >
<path style="stroke: none; stroke-width: 1; stroke-dasharray: none; stroke-linecap: butt; stroke-dashoffset: 0; stroke-linejoin: miter; stroke-miterlimit: 4; fill: rgb(63,169,91); fill-rule: nonzero; opacity: 1;"  transform=" translate(-45.74, -31.89)" d="M 52.15 40.81 c 0 6.16 -5.37 9.21 -10.68 6.32 a 4 4 0 0 1 -2 -3.14 c -0.13 -0.93 0 -1.89 -0.1 -2.83 c -0.56 -8.43 2.93 -8 9.85 -7.16 c 3.67 0.47 2.78 4.29 2.93 6.81 z M 45.91 15.56 c 5.37 0 6.27 0.94 6.25 6.52 c 0 5.21 -1 6.24 -6.22 6.24 c -5.7 0 -6.61 -0.9 -6.59 -6.56 c 0.01 -5.34 0.93 -6.2 6.56 -6.2 z" stroke-linecap="round" />
</g>
<g transform="matrix(3.38 0 0 3.38 320.5 362.9)"  >
<path style="stroke: none; stroke-width: 1; stroke-dasharray: none; stroke-linecap: butt; stroke-dashoffset: 0; stroke-linejoin: miter; stroke-miterlimit: 4; fill: rgb(10,6,25); fill-rule: nonzero; opacity: 1;"  transform=" translate(-95.93, 12.28)" d="M 22.61 -17.59 C 22.41 -13.2 21.29 -4.19 21.29 -2.67 C 21.29 -1.09 22.24 0 24.72 0 L 26.53 0 C 26.93 0 27.03 -0.13 27.06 -0.49 C 27.16 -1.42 28.35 -17.26 28.35 -20.3 C 28.35 -22.31 27.82 -23.43 25.01 -23.43 L 19.87 -23.43 C 19.3 -23.43 19.14 -23.13 19.04 -22.87 C 16.24 -12.01 17.59 -17.36 14.69 -6.4 C 12.41 -18.68 13.4 -23.43 8.22 -23.43 L 3.6 -23.43 C 3.37 -23.43 3.04 -23.3 3.04 -22.94 C 3 -20.49 3 -20.99 2.34 -12.44 C 2.01 -8.22 1.68 -4.03 1.68 -2.94 C 1.68 -1.02 2.64 0 5.12 0 L 6.93 0 C 7.33 0 7.46 -0.2 7.46 -1.52 C 7.46 -5.05 7.82 -15.77 7.82 -17.59 C 8.98 -13.1 10 -6.14 11.32 -1.68 C 11.81 -0.33 13.53 0 15.05 0 C 16.24 0 16.73 -0.2 16.9 -0.56 C 18.64 -4.92 21.52 -14.42 22.61 -17.59 Z M 37.62 -15.35 C 37.62 -17.09 36.96 -18.15 34.22 -18.15 L 33.16 -18.15 C 32.54 -18.15 32.31 -17.92 32.24 -17.13 C 32.08 -15.61 31.42 -6.6 31.42 -4.88 C 31.42 -1.98 33.36 0.33 36.73 0.33 C 38.48 0.33 40.49 -0.4 41.81 -2.71 C 41.91 -1.29 42.6 0 45.24 0 L 46.53 0 C 47.16 0 47.16 -0.03 47.22 -0.96 C 47.92 -10.66 48.21 -13.66 48.21 -15.02 C 48.21 -17.03 47.55 -18.15 44.85 -18.15 L 43.66 -18.15 C 43.16 -18.15 42.97 -17.85 42.93 -17.49 C 42.54 -13.37 42.67 -4.09 39.11 -4.09 C 37.75 -4.09 36.93 -5.02 36.93 -6.53 C 36.93 -7.92 37.62 -13.53 37.62 -15.35 Z M 58.81 -18.48 C 55.18 -18.48 51.25 -16.9 51.25 -12.38 C 51.25 -6.24 58.48 -7.33 58.48 -4.82 C 58.48 -3.89 57.45 -3.73 56.36 -3.73 C 53.46 -3.73 53.1 -4.95 52.01 -4.95 C 50.72 -4.95 50.09 -3.2 50.09 -2.44 C 50.09 -0.36 54.62 0.33 57.09 0.33 C 61.55 0.33 63.82 -1.91 63.82 -5.08 C 63.82 -10.99 55.97 -9.97 55.97 -12.71 C 55.97 -13.6 56.79 -14.26 58.01 -14.26 C 59.83 -14.26 59.9 -12.84 59.93 -12.04 C 59.93 -11.68 60.09 -11.58 60.72 -11.58 C 63 -11.58 64.25 -12.64 64.25 -14.55 C 64.25 -16.83 62.5 -18.48 58.81 -18.48 Z M 71.21 0 C 71.78 0 71.91 -0.13 71.94 -0.66 C 72.7 -10.13 73 -13.86 73 -15.15 C 73 -17.03 72.34 -18.15 69.63 -18.15 L 68.34 -18.15 C 68.05 -18.15 67.91 -18.15 67.81 -18.05 C 67.72 -17.95 67.68 -17.72 67.65 -17.19 C 66.96 -7.49 66.66 -4.49 66.66 -3.14 C 66.66 -1.12 67.32 0 70.03 0 Z M 67.68 -22.04 C 67.68 -20.63 68.61 -19.93 70.36 -19.93 C 72.67 -19.93 73.92 -21.15 73.92 -22.77 C 73.92 -24.06 73.09 -24.88 71.21 -24.88 C 69.07 -24.88 67.68 -23.79 67.68 -22.04 Z M 84.22 -4.06 C 82.07 -4.06 81.11 -5.12 81.11 -8.25 C 81.11 -10 81.41 -14.09 84.15 -14.09 C 85.63 -14.09 85.63 -12.87 85.67 -10.72 C 85.67 -10.33 85.87 -10.26 86.53 -10.26 C 89.23 -10.26 90.82 -11.35 90.82 -13.73 C 90.82 -16.37 88.87 -18.48 84.58 -18.48 C 76.66 -18.48 75.5 -11.32 75.5 -7.92 C 75.5 -1.49 79.69 0.33 83.03 0.33 C 86.06 0.33 87.98 -1.39 88.37 -1.85 C 88.8 -2.34 89.43 -4.19 89.43 -4.79 C 89.43 -5.41 89.13 -5.78 88.67 -5.78 C 87.91 -5.78 86.79 -4.06 84.22 -4.06 Z M 98.08 0 C 98.47 0 98.57 -0.13 98.6 -0.49 C 98.64 -0.89 98.9 -4.26 99.16 -8.15 C 99.73 -8.02 100.35 -7.95 101.11 -7.92 C 102.13 -3.63 103.45 0.33 106.23 0.33 C 108.8 0.33 110.38 -1.55 110.38 -2.15 C 110.38 -2.54 109.86 -3.3 108.83 -4.79 L 106.06 -8.75 C 109.03 -10.13 110.35 -13 110.35 -16.4 C 110.35 -20.86 108.11 -23.76 102.43 -23.76 C 100.62 -23.76 97.61 -23.43 94.84 -23.43 C 94.41 -23.43 94.35 -23.1 94.21 -21.12 C 94.12 -19.54 93.98 -16.86 93.65 -12.44 C 93.32 -8.22 92.99 -4.03 92.99 -2.94 C 92.99 -1.02 93.95 0 96.43 0 Z M 101.77 -18.81 C 103.95 -18.81 104.74 -17.79 104.74 -16 C 104.74 -14.62 104.25 -12.21 101.47 -12.21 C 100.88 -12.21 100.19 -12.31 99.46 -12.47 C 99.63 -14.88 99.76 -17.09 99.82 -18.64 C 100.55 -18.74 101.24 -18.81 101.77 -18.81 Z M 120.42 0.33 C 123.35 0.33 126.89 -0.69 126.89 -3.27 C 126.89 -5.25 124.81 -5.61 124.38 -5.61 C 123.45 -5.61 123.49 -3.8 121.18 -3.8 C 118.93 -3.8 118.04 -5.48 118.04 -7.16 C 120.19 -7.16 128.37 -7.49 128.37 -13.53 C 128.37 -16.24 126.75 -18.48 122.17 -18.48 C 113.65 -18.48 112.37 -10.72 112.37 -7.39 C 112.37 -1.39 116.59 0.33 120.42 0.33 Z M 121.04 -14.09 C 122.17 -14.09 122.73 -13.27 122.73 -12.38 C 122.73 -10.76 120.85 -9.83 118.14 -9.8 C 118.37 -11.68 119.1 -14.09 121.04 -14.09 Z M 141.6 -2.9 C 141.6 -1.06 142.23 0 145 0 L 146.06 0 C 146.82 0 146.95 -0.07 146.95 -1.02 C 146.95 -2.15 147.84 -10.36 147.84 -12.51 C 147.84 -17 146.09 -18.48 142.4 -18.48 C 139.76 -18.48 138.14 -17.72 136.75 -15.38 C 136.65 -16.83 135.96 -18.15 133.32 -18.15 L 132.03 -18.15 C 131.74 -18.15 131.6 -18.15 131.51 -18.05 C 131.41 -17.95 131.37 -17.72 131.34 -17.19 C 130.65 -7.49 130.35 -4.49 130.35 -3.14 C 130.35 -1.12 131.01 0 133.72 0 L 134.9 0 C 135.47 0 135.6 -0.13 135.63 -0.66 C 136.39 -11.58 137.25 -14.06 140.28 -14.06 C 141.87 -14.06 142.3 -13 142.3 -11.85 C 142.3 -9.67 141.6 -4.82 141.6 -2.9 Z M 159.62 -13.7 C 161.6 -13.7 162.03 -14.59 162.13 -15.91 L 162.26 -17.69 C 162.26 -18.02 162.06 -18.15 161.73 -18.15 L 158.27 -18.15 C 158.33 -19.01 158.37 -19.67 158.37 -20.1 C 158.37 -21.68 157.77 -23 155.93 -23 L 154.97 -23 C 154.37 -23 153.38 -19.73 152.76 -18.15 C 150.71 -18.15 150.45 -16.96 150.38 -15.84 L 150.28 -14.16 C 150.28 -13.86 150.31 -13.7 150.65 -13.7 L 152.39 -13.7 C 151.93 -7.46 151.64 -5.51 151.64 -4.16 C 151.64 -1.16 153.12 0.33 156.29 0.33 C 159.49 0.33 160.68 -1.19 160.68 -3.6 C 160.68 -4.85 160.35 -5.08 160.05 -5.08 C 159.46 -5.08 159.09 -4.22 158.1 -4.22 C 157.51 -4.22 157.25 -4.52 157.25 -5.64 C 157.25 -6.9 157.58 -10.4 157.87 -13.7 Z M 162.95 -4.06 C 162.95 -0.86 165.1 0.33 167.74 0.33 C 170.48 0.33 172.06 -1.02 173.12 -2.54 C 173.45 -0.76 174.44 0.33 176.55 0.33 C 179.59 0.33 180.51 -2.01 180.51 -3.96 C 180.51 -4.65 178.56 -3.93 178.56 -6.14 C 178.56 -7.13 179.12 -11.68 179.12 -12.67 C 179.12 -16.37 177.05 -18.48 172.16 -18.48 C 167.11 -18.48 164.6 -16.24 164.6 -13.46 C 164.6 -11.71 165.73 -10.92 167.97 -10.92 C 168.63 -10.92 168.89 -10.99 168.99 -11.38 C 169.39 -12.97 169.69 -14.06 171.53 -14.06 C 173.18 -14.06 173.58 -13.17 173.58 -11.75 C 173.58 -11.29 173.55 -10.99 173.51 -10.53 C 166.62 -10.36 162.95 -7.99 162.95 -4.06 Z M 173.22 -7.82 C 173.02 -5.31 171.57 -4.06 170.15 -4.06 C 169.42 -4.06 168.63 -4.39 168.63 -5.41 C 168.63 -7.16 170.91 -7.82 173.22 -7.82 Z M 186.35 0.3 C 189.42 0.3 190.18 -1.75 190.18 -3.7 C 190.18 -4.16 188.2 -3.6 188.2 -5.84 C 188.2 -8.35 189.32 -18.98 189.32 -21.58 C 189.32 -23.07 188.53 -24.42 185.89 -24.42 L 184.6 -24.42 C 184.31 -24.42 184.17 -24.42 184.07 -24.32 C 183.98 -24.22 183.94 -23.99 183.91 -23.46 C 183.12 -9.37 182.52 -6.01 182.52 -4.39 C 182.52 -1.06 183.65 0.3 186.35 0.3 Z" stroke-linecap="round" />
</g>
<g transform="matrix(3.38 0 0 3.38 436.43 145.13)"  >
<path style="stroke: none; stroke-width: 1; stroke-dasharray: none; stroke-linecap: butt; stroke-dashoffset: 0; stroke-linejoin: miter; stroke-miterlimit: 4; fill: rgb(76,136,239); fill-rule: nonzero; opacity: 1;"  transform=" translate(-65.32, -26.25)" d="M 71.85 12.61 c 0 2.6 0.05 5.21 0 7.81 c -0.09 3.42 -2.1 4.7 -5.32 4.78 c -5.32 0.13 -7.43 -0.78 -7.59 -4.23 c -0.26 -5.67 -0.21 -11.36 0 -17 c 0.1 -2.56 1.76 -4 4.53 -3.93 h 3.55 c 3.35 -0.15 4.72 1.74 4.82 4.79 c 0.07 2.57 0.01 5.17 0.01 7.78 z M 71.86 41.53 v 4.27 c 0 5.63 -1.08 6.68 -6.6 6.67 c -5.29 0 -6.45 -1.15 -6.47 -6.47 c 0 -3.43 -0.07 -6.87 0 -10.31 c 0.11 -3.79 1.49 -5.11 5.18 -5.19 c 7.16 -0.16 7.86 0.53 7.87 7.83 z" stroke-linecap="round" />
</g>
<g transform="matrix(3.38 0 0 3.38 436.45 275.08)"  >
<path style="stroke: none; stroke-width: 1; stroke-dasharray: none; stroke-linecap: butt; stroke-dashoffset: 0; stroke-linejoin: miter; stroke-miterlimit: 4; fill: rgb(76,136,239); fill-rule: nonzero; opacity: 1;"  transform=" translate(-65.32, -64.7)" d="M 71.85 64.66 c 0 6.14 -0.82 7 -6.52 7 s -6.55 -1 -6.54 -7 c 0 -5.86 1.05 -6.93 6.73 -6.92 c 5.33 0 6.33 1.09 6.33 6.92 z" stroke-linecap="round" />
</g>
</svg>